M48
; DRILL file {KiCad 8.0.5} date 2026-05-27T16:56:46+0200
; FORMAT={-:-/ absolute / metric / decimal}
; #@! TF.CreationDate,2026-05-27T16:56:46+02:00
; #@! TF.GenerationSoftware,Kicad,Pcbnew,8.0.5
; #@! TF.FileFunction,MixedPlating,1,4
FMAT,2
METRIC
; #@! TA.AperFunction,Plated,PTH,ViaDrill
T1C0.400
; #@! TA.AperFunction,Plated,PTH,ComponentDrill
T2C0.650
; #@! TA.AperFunction,Plated,PTH,ComponentDrill
T3C0.800
; #@! TA.AperFunction,Plated,PTH,ComponentDrill
T4C0.889
; #@! TA.AperFunction,Plated,PTH,ComponentDrill
T5C1.000
; #@! TA.AperFunction,Plated,PTH,ComponentDrill
T6C1.200
; #@! TA.AperFunction,NonPlated,NPTH,ComponentDrill
T7C3.200
%
G90
G05
T1
X-26.0Y28.976
X-24.3Y16.7
X-23.5Y17.5
X-22.7Y12.7
X-21.9Y13.5
X-21.1Y20.7
X-20.3Y19.9
X-13.9Y12.7
X-11.4Y13.5
X-8.8Y20.7
X-8.3Y19.1
X-7.5Y18.3
X-6.3Y19.9
X-5.9Y15.9
X-5.1Y20.7
X-5.1Y15.1
X-4.3Y14.3
X-3.8Y19.1
X-1.24Y29.156
X-1.2Y18.3
X1.3Y20.7
X4.3Y16.7
X5.1Y17.5
X5.9Y12.7
X6.4Y20.7
X6.7Y13.5
X11.5Y19.1
X14.0Y14.3
X16.6Y15.1
X17.9Y17.5
X19.4Y16.7
X20.3Y20.7
X21.1Y18.3
X21.9Y19.1
X22.7Y15.9
X23.5Y15.1
X24.3Y14.3
X24.5Y26.5
X24.5Y22.5
X24.685Y35.85
X25.955Y30.3
X27.225Y31.2
X28.495Y35.85
X34.2Y28.8
X35.5Y35.4
X36.75Y30.77
X38.02Y30.77
X39.3Y36.3
X46.816Y29.184
T2
X33.401Y-26.162
X34.671Y-26.162
X35.941Y-26.162
X42.545Y-26.162
X43.815Y-26.162
T3
X-36.09Y37.2
X-36.09Y29.58
X-33.55Y37.2
X-33.55Y29.58
X-16.48Y37.7
X-16.48Y22.46
X-13.94Y37.7
X-13.94Y22.46
X-11.4Y37.7
X-11.4Y22.46
X-8.86Y37.7
X-8.86Y22.46
X-6.32Y37.7
X-6.32Y22.46
X-3.78Y37.7
X-3.78Y22.46
X-1.24Y37.7
X-1.24Y22.46
X1.3Y37.7
X1.3Y22.46
X3.84Y37.7
X3.84Y22.46
X6.38Y37.7
X6.38Y22.46
X8.92Y37.7
X8.92Y22.46
X11.46Y37.7
X11.46Y22.46
X14.0Y37.7
X14.0Y22.46
X16.54Y37.7
X16.54Y22.46
T4
X-25.76Y11.04
X-25.76Y8.5
X-25.76Y5.96
X-25.76Y3.42
X-25.76Y0.88
X-25.76Y-1.66
X-25.76Y-4.2
X-25.76Y-6.74
X-2.9Y11.04
X-2.9Y8.5
X-2.9Y5.96
X-2.9Y3.42
X-2.9Y0.88
X-2.9Y-1.66
X-2.9Y-4.2
X-2.9Y-6.74
X2.855Y10.995
X2.855Y8.455
X2.855Y5.915
X2.855Y3.375
X2.855Y0.835
X2.855Y-1.705
X2.855Y-4.245
X2.855Y-6.785
X25.715Y10.995
X25.715Y8.455
X25.715Y5.915
X25.715Y3.375
X25.715Y0.835
X25.715Y-1.705
X25.715Y-4.245
X25.715Y-6.785
T5
X-43.74Y22.67
X-41.2Y22.67
X-38.66Y22.67
X-36.12Y22.67
X-33.58Y22.67
X-32.7Y-11.2
X-32.7Y-13.74
X-32.7Y-16.32
X-32.7Y-23.9
X-32.7Y-26.44
X-25.75Y-39.76
X-23.21Y-39.76
X-20.67Y-39.76
X-18.13Y-39.76
X-15.59Y-39.76
X-13.05Y-39.76
X-10.51Y-39.76
X-7.97Y-39.76
X-5.43Y-39.76
X-2.89Y-39.76
X2.9Y-39.76
X5.44Y-39.76
X7.98Y-39.76
X10.52Y-39.76
X13.06Y-39.76
X15.6Y-39.76
X18.14Y-39.76
X20.68Y-39.76
X22.79Y35.85
X22.79Y33.31
X22.79Y30.77
X23.22Y-39.76
X25.76Y-39.76
X30.41Y35.85
X30.41Y33.31
X30.41Y30.77
X33.56Y35.85
X33.56Y33.31
X33.56Y30.77
X41.18Y35.85
X41.18Y33.31
X41.18Y30.77
T6
X-36.55Y13.3
X-36.55Y8.22
X-36.55Y0.6
X-36.55Y-1.94
X34.6Y12.75
X34.6Y10.25
X34.6Y7.75
X34.6Y2.85
X34.6Y0.35
X34.6Y-2.15
X34.6Y-7.05
X34.6Y-9.55
X34.6Y-12.05
X34.6Y-16.95
X34.6Y-19.45
X34.6Y-21.95
X43.2Y12.75
X43.2Y10.25
X43.2Y7.75
X43.2Y2.85
X43.2Y0.35
X43.2Y-2.15
X43.2Y-7.05
X43.2Y-9.55
X43.2Y-12.05
X43.2Y-16.95
X43.2Y-19.45
X43.2Y-21.95
T7
X-46.0Y35.5
X-46.0Y-35.5
X46.0Y35.5
X46.0Y-35.5
M30
