G04 #@! TF.GenerationSoftware,KiCad,Pcbnew,8.0.5*
G04 #@! TF.CreationDate,2026-05-27T16:56:42+02:00*
G04 #@! TF.ProjectId,NOP100,4e4f5031-3030-42e6-9b69-6361645f7063,221101*
G04 #@! TF.SameCoordinates,Original*
G04 #@! TF.FileFunction,Soldermask,Bot*
G04 #@! TF.FilePolarity,Negative*
%FSLAX46Y46*%
G04 Gerber Fmt 4.6, Leading zero omitted, Abs format (unit mm)*
G04 Created by KiCad (PCBNEW 8.0.5) date 2026-05-27 16:56:42*
%MOMM*%
%LPD*%
G01*
G04 APERTURE LIST*
%ADD10C,2.000000*%
%ADD11R,2.000000X2.000000*%
%ADD12C,3.200000*%
%ADD13R,1.600000X1.600000*%
%ADD14O,1.600000X1.600000*%
%ADD15R,1.700000X1.700000*%
%ADD16O,1.700000X1.700000*%
%ADD17R,2.000000X1.700000*%
%ADD18O,2.000000X1.700000*%
%ADD19R,1.600000X2.400000*%
%ADD20O,1.600000X2.400000*%
%ADD21R,1.000000X1.000000*%
%ADD22O,1.000000X1.000000*%
%ADD23R,1.676400X1.676400*%
%ADD24C,1.524000*%
%ADD25R,1.524000X1.524000*%
G04 APERTURE END LIST*
D10*
X22790000Y33310000D03*
X30410000Y33310000D03*
D11*
X22790000Y35850000D03*
D10*
X30410000Y30770000D03*
X22790000Y30770000D03*
X30410000Y35850000D03*
D11*
X43200000Y2850000D03*
D10*
X43200000Y350000D03*
X43200000Y-2150000D03*
X33560000Y33310000D03*
X41180000Y33310000D03*
D11*
X33560000Y35850000D03*
D10*
X41180000Y30770000D03*
X33560000Y30770000D03*
X41180000Y35850000D03*
D11*
X34600000Y-7050000D03*
D10*
X34600000Y-9550000D03*
X34600000Y-12050000D03*
D11*
X43200000Y-7050000D03*
D10*
X43200000Y-9550000D03*
X43200000Y-12050000D03*
X-36550000Y-1940000D03*
X-36550000Y600000D03*
X-36550000Y8220000D03*
X-36550000Y13300000D03*
D11*
X34600000Y12750000D03*
D10*
X34600000Y10250000D03*
X34600000Y7750000D03*
D11*
X34600000Y2850000D03*
D10*
X34600000Y350000D03*
X34600000Y-2150000D03*
D12*
X-46000000Y35500000D03*
D13*
X-16480000Y22460000D03*
D14*
X-13940000Y22460000D03*
X-11400000Y22460000D03*
X-8860000Y22460000D03*
X-6320000Y22460000D03*
X-3780000Y22460000D03*
X-1240000Y22460000D03*
X1300000Y22460000D03*
X3840000Y22460000D03*
X6380000Y22460000D03*
X8920000Y22460000D03*
X11460000Y22460000D03*
X14000000Y22460000D03*
X16540000Y22460000D03*
X16540000Y37700000D03*
X14000000Y37700000D03*
X11460000Y37700000D03*
X8920000Y37700000D03*
X6380000Y37700000D03*
X3840000Y37700000D03*
X1300000Y37700000D03*
X-1240000Y37700000D03*
X-3780000Y37700000D03*
X-6320000Y37700000D03*
X-8860000Y37700000D03*
X-11400000Y37700000D03*
X-13940000Y37700000D03*
X-16480000Y37700000D03*
D15*
X-43740000Y22670000D03*
D16*
X-41200000Y22670000D03*
X-38660000Y22670000D03*
X-36120000Y22670000D03*
X-33580000Y22670000D03*
D17*
X-32700000Y-11200000D03*
D18*
X-32700000Y-13740000D03*
X-32700000Y-16320000D03*
X-32700000Y-23900000D03*
X-32700000Y-26440000D03*
D12*
X-46000000Y-35500000D03*
D19*
X-33550000Y37200000D03*
D20*
X-36090000Y37200000D03*
X-36090000Y29580000D03*
X-33550000Y29580000D03*
D21*
X43815000Y-26162000D03*
D22*
X42545000Y-26162000D03*
D11*
X43200000Y12750000D03*
D10*
X43200000Y10250000D03*
X43200000Y7750000D03*
D23*
X25715000Y-6785000D03*
D24*
X25715000Y-4245000D03*
X25715000Y-1705000D03*
X25715000Y835000D03*
X25715000Y3375000D03*
X25715000Y5915000D03*
X25715000Y8455000D03*
X25715000Y10995000D03*
X2855000Y10995000D03*
X2855000Y8455000D03*
X2855000Y5915000D03*
X2855000Y3375000D03*
X2855000Y835000D03*
X2855000Y-1705000D03*
X2855000Y-4245000D03*
D25*
X2855000Y-6785000D03*
D21*
X35941000Y-26162000D03*
D22*
X34671000Y-26162000D03*
X33401000Y-26162000D03*
D11*
X34600000Y-16950000D03*
D10*
X34600000Y-19450000D03*
X34600000Y-21950000D03*
D23*
X-2900000Y-6740000D03*
D24*
X-2900000Y-4200000D03*
X-2900000Y-1660000D03*
X-2900000Y880000D03*
X-2900000Y3420000D03*
X-2900000Y5960000D03*
X-2900000Y8500000D03*
X-2900000Y11040000D03*
X-25760000Y11040000D03*
X-25760000Y8500000D03*
X-25760000Y5960000D03*
X-25760000Y3420000D03*
X-25760000Y880000D03*
X-25760000Y-1660000D03*
X-25760000Y-4200000D03*
D25*
X-25760000Y-6740000D03*
D11*
X43200000Y-16950000D03*
D10*
X43200000Y-19450000D03*
X43200000Y-21950000D03*
D15*
X2900000Y-39760000D03*
D16*
X5440000Y-39760000D03*
X7980000Y-39760000D03*
X10520000Y-39760000D03*
X13060000Y-39760000D03*
X15600000Y-39760000D03*
X18140000Y-39760000D03*
X20680000Y-39760000D03*
X23220000Y-39760000D03*
X25760000Y-39760000D03*
D12*
X46000000Y35500000D03*
D15*
X-25750000Y-39760000D03*
D16*
X-23210000Y-39760000D03*
X-20670000Y-39760000D03*
X-18130000Y-39760000D03*
X-15590000Y-39760000D03*
X-13050000Y-39760000D03*
X-10510000Y-39760000D03*
X-7970000Y-39760000D03*
X-5430000Y-39760000D03*
X-2890000Y-39760000D03*
D12*
X46000000Y-35500000D03*
M02*
